<?xml version="1.0" encoding="UTF-8" standalone="no"?>
<!-- Created with Inkscape (http://www.inkscape.org/) -->

<svg
   width="143.19901mm"
   height="44.647404mm"
   viewBox="0 0 143.19901 44.647404"
   version="1.1"
   id="svg1"
   inkscape:version="1.3.2 (1:1.3.2+202311252150+091e20ef0f)"
   sodipodi:docname="Noobar.svg"
   xml:space="preserve"
   inkscape:export-filename="Noobar white.svg"
   inkscape:export-xdpi="96"
   inkscape:export-ydpi="96"
   xmlns:inkscape="http://www.inkscape.org/namespaces/inkscape"
   xmlns:sodipodi="http://sodipodi.sourceforge.net/DTD/sodipodi-0.dtd"
   xmlns="http://www.w3.org/2000/svg"
   xmlns:svg="http://www.w3.org/2000/svg"><sodipodi:namedview
     id="namedview1"
     pagecolor="#ffffff"
     bordercolor="#000000"
     borderopacity="0.25"
     inkscape:showpageshadow="2"
     inkscape:pageopacity="0.0"
     inkscape:pagecheckerboard="0"
     inkscape:deskcolor="#d1d1d1"
     inkscape:document-units="mm"
     inkscape:zoom="0.73098239"
     inkscape:cx="413.82666"
     inkscape:cy="433.66298"
     inkscape:window-width="1366"
     inkscape:window-height="699"
     inkscape:window-x="0"
     inkscape:window-y="0"
     inkscape:window-maximized="1"
     inkscape:current-layer="layer1"
     showguides="true" /><defs
     id="defs1" /><g
     inkscape:label="Layer 1"
     inkscape:groupmode="layer"
     id="layer1"
     transform="translate(-68.895683,-114.55849)"><path
       d="m 197.64855,144.47295 h -2.11253 c -0.37525,0.48119 -0.75683,0.95729 -1.16479,1.41231 -0.24625,0.28565 -0.52118,0.55201 -0.7829,0.82734 -0.69508,1.53469 -1.36564,2.95796 -1.98282,4.1398 -0.0753,0.22581 -0.11318,0.35721 -0.11318,0.39481 0,0.33867 0.26384,0.50798 0.79065,0.50798 0.94074,0 1.52399,-0.26332 1.74977,-0.79013 1.13244,-2.46183 2.34243,-4.60607 3.6158,-6.49211 z"
       style="-inkscape-font-specification:'Ephesis, Normal';fill:#ffffff;fill-rule:evenodd;stroke-width:2.205;stroke-linecap:square;stroke-linejoin:round;paint-order:fill markers stroke"
       id="path17" /><path
       d="m 184.38889,143.27509 3.69332,-5.2e-4 c 0.68652,-1.25411 1.47129,-2.6085 2.45101,-4.16254 0.0377,-0.0376 0.0563,-0.11294 0.0563,-0.22582 0,-0.67734 -0.56455,-1.01596 -1.69344,-1.01596 -0.60207,0 -1.016,0.20671 -1.24178,0.62063 -0.48919,0.82785 -1.14775,1.82503 -1.97559,2.99155 -0.3802,0.56125 -0.81383,1.16173 -1.28985,1.79266 z"
       style="-inkscape-font-specification:'Ephesis, Normal';fill:#ffffff;fill-rule:evenodd;stroke-width:2.205;stroke-linecap:square;stroke-linejoin:round;paint-order:fill markers stroke"
       id="path16" /><path
       d="m 184.72117,144.47398 h -1.27537 c -0.25481,0.32129 -0.48195,0.62245 -0.75861,0.95963 -2.93511,3.72532 -4.85416,5.39976 -5.75727,5.02347 -0.71496,-0.26341 -1.07229,-0.90327 -1.07229,-1.91927 0,-1.13099 0.46249,-2.50145 1.29346,-4.06331 l -2.90473,5.1e-4 c -0.45483,1.14479 -0.7028,2.1683 -0.7028,3.04685 0,2.03199 1.12858,3.31171 3.38636,3.83852 0.97837,0.22578 2.18277,-0.33877 3.6127,-1.69344 0.48917,-0.48918 1.01581,-1.05373 1.58026,-1.69343 0.56445,-0.63971 1.129,-1.37357 1.69344,-2.20142 z"
       style="-inkscape-font-specification:'Ephesis, Normal';fill:#ffffff;fill-rule:evenodd;stroke-width:2.205;stroke-linecap:square;stroke-linejoin:round;paint-order:fill markers stroke"
       id="path15" /><path
       d="m 174.77604,143.2756 h 3.05666 c 0.32653,-0.52507 0.66406,-1.05597 1.07281,-1.62367 1.42992,-1.95674 3.04826,-3.51847 4.85448,-4.68499 1.80622,-1.16651 3.48065,-1.74976 5.02347,-1.74976 1.31703,0 2.3703,0.43263 3.16053,1.29811 0.0376,0.0376 0.0756,0.0563 0.11317,0.0563 0.15052,0 0.22582,-0.1314 0.22582,-0.39481 0,-0.33867 -0.20722,-0.65859 -0.62115,-0.95963 -1.2794,-0.75259 -2.63391,-1.12913 -4.06383,-1.12913 -2.33304,0 -4.76003,0.92187 -7.28121,2.76572 -0.97837,0.71496 -1.84416,1.44883 -2.59674,2.20142 -0.75259,0.75259 -1.37323,1.50515 -1.86242,2.25774 -0.42251,0.69044 -0.77479,1.33997 -1.08159,1.96267 z"
       style="-inkscape-font-specification:'Ephesis, Normal';fill:#ffffff;fill-rule:evenodd;stroke-width:2.205;stroke-linecap:square;stroke-linejoin:round;paint-order:fill markers stroke"
       id="path14" /><path
       d="m 169.40531,144.47553 h -3.18792 c -0.47914,0.5811 -0.99588,1.14983 -1.59215,1.69189 -0.82785,0.75259 -1.74972,1.44853 -2.76572,2.08824 -1.95674,1.27941 -3.51847,1.91926 -4.68499,1.91926 -0.6397,0 -0.95963,-0.28201 -0.95963,-0.84646 0,-1.01733 0.97817,-2.65416 2.84479,-4.85241 l -3.03599,5.1e-4 c -1.06606,2.61719 -1.61489,4.38337 -1.61489,5.24671 0,0.22581 0.0187,0.35773 0.0563,0.39533 0.79022,1.24177 1.91931,1.86241 3.38687,1.86241 1.69333,0 3.64978,-0.75255 5.86993,-2.25774 1.91911,-1.2794 3.63146,-2.80323 5.13663,-4.57181 0.19433,-0.2292 0.36528,-0.45085 0.54674,-0.67593 z"
       style="-inkscape-font-specification:'Ephesis, Normal';fill:#ffffff;fill-rule:evenodd;stroke-width:2.205;stroke-linecap:square;stroke-linejoin:round;paint-order:fill markers stroke"
       id="path13" /><path
       d="m 156.53426,143.27715 h 3.59616 c 0.51284,-0.56314 1.00033,-1.11023 1.61593,-1.73839 3.9511,-3.87584 6.62324,-5.8136 8.01553,-5.8136 0.48918,0 0.73329,0.28201 0.73329,0.84646 0,1.38587 -1.14728,3.64127 -3.36207,6.70502 l 3.19205,-5.2e-4 c 1.9459,-2.67651 2.93626,-5.04649 2.93626,-7.09931 0,-0.90311 -0.33863,-1.35495 -1.01596,-1.35495 -0.60208,-0.0753 -1.12923,-0.13139 -1.58078,-0.16899 -0.45156,-0.0753 -0.80888,-0.15056 -1.07229,-0.22582 -1.31703,0 -3.44331,1.41111 -6.37842,4.23333 -1.16652,1.12889 -2.06969,2.01285 -2.7094,2.65255 l -1.24178,1.24179 c 5.15525,-10.12235 9.27589,-16.36876 12.36152,-18.73943 0.2634,-0.15052 0.39532,-0.43254 0.39532,-0.84646 0,-0.30106 -0.18853,-0.47038 -0.56482,-0.50798 -1.69333,-0.15052 -2.84061,0.1502 -3.44269,0.90279 -2.55881,3.38666 -5.41895,7.99654 -8.57983,13.82913 -0.56445,1.05363 -1.129,2.16352 -1.69344,3.33003 -0.40164,0.86065 -0.80294,1.80622 -1.20458,2.75435 z"
       style="-inkscape-font-specification:'Ephesis, Normal';fill:#ffffff;fill-rule:evenodd;stroke-width:2.205;stroke-linecap:square;stroke-linejoin:round;paint-order:fill markers stroke"
       id="path12" /><path
       d="m 151.59916,144.47656 -1.78025,5.2e-4 c -0.58526,0.91038 -1.26737,1.82889 -2.127,2.76262 -2.14489,2.37067 -4.04525,3.55586 -5.70095,3.55586 -1.39229,0 -2.08824,-1.01588 -2.08824,-3.04788 0,-1.05118 0.16078,-2.14269 0.4656,-3.27008 h -2.46961 c -0.12283,0.70744 -0.19741,1.42038 -0.19741,2.14147 0,3.38666 1.37321,5.07979 4.12016,5.07979 h 5.2e-4 c 2.22015,0 4.49653,-1.1478 6.82956,-3.4432 1.21998,-1.1628 2.20081,-2.42317 2.94762,-3.7791 z"
       style="-inkscape-font-specification:'Ephesis, Normal';fill:#ffffff;fill-rule:evenodd;stroke-width:2.205;stroke-linecap:square;stroke-linejoin:round;paint-order:fill markers stroke"
       id="path11" /><path
       d="m 138.16846,143.2787 2.5895,-5.1e-4 c 0.44784,-1.1795 1.31197,-2.65021 2.64429,-4.44883 0.48918,0.0376 1.03452,0.0568 1.63659,0.0568 h 2.08876 2.25774 c 0.75259,0 1.48594,-0.0192 2.2009,-0.0568 0.0753,0.22578 0.11317,0.4517 0.11317,0.67748 0,0.11289 -0.0187,0.24481 -0.0563,0.39533 0,0.11288 -0.0187,0.26298 -0.0563,0.45113 -0.17894,0.95975 -0.55613,1.93649 -1.06557,2.92437 h 1.65985 c 0.41857,-0.96799 0.73358,-1.97822 0.92966,-3.03702 0.0376,-0.11289 0.0563,-0.3009 0.0563,-0.56431 0,-0.33867 -0.0566,-0.6399 -0.1695,-0.9033 0.94074,-0.11289 1.73121,-0.22559 2.37091,-0.33849 0.67733,-0.11288 1.22267,-0.20689 1.63659,-0.28215 0.15052,-0.0376 0.22583,-0.0942 0.22583,-0.1695 0,-0.2634 -0.16931,-0.39532 -0.50798,-0.39532 h -0.22583 c -0.33866,0.0376 -0.82739,0.0756 -1.46709,0.11317 -0.63971,0.0377 -1.43018,0.0751 -2.37091,0.11265 -0.56444,-0.94074 -1.56163,-1.84391 -2.99155,-2.70939 -0.30104,-0.18815 -0.62097,-0.35746 -0.95963,-0.50798 -0.33867,-0.15051 -0.696,-0.30062 -1.07229,-0.45114 -0.30103,-0.18814 -0.69627,-0.28267 -1.18546,-0.28267 -1.76859,0 -3.31111,0.52716 -4.62814,1.58079 -0.15052,0.11288 -0.22582,0.2822 -0.22582,0.50798 0,0.11288 0.0374,0.3009 0.11265,0.5643 0.0752,0.22581 0.0939,0.35773 0.0563,0.39533 -1.80474,2.0554 -2.99412,4.17911 -3.59668,6.36808 z m 9.57977,-6.87606 c 1.7686,0 2.9543,0.47002 3.55638,1.41076 -2.52119,0.0376 -4.83548,-0.0751 -6.94273,-0.33848 0.15051,-0.15052 0.28191,-0.28243 0.39481,-0.39532 0.11288,-0.11292 0.22611,-0.18823 0.33899,-0.22583 0.41393,-0.30104 1.29789,-0.45113 2.65255,-0.45113 z"
       style="-inkscape-font-specification:'Ephesis, Normal';fill:#ffffff;fill-rule:evenodd;stroke-width:2.205;stroke-linecap:square;stroke-linejoin:round;paint-order:fill markers stroke"
       id="path10" /><path
       d="m 120.5008,143.27974 h 2.59002 c 0.44766,-1.17974 1.3114,-2.65099 2.64429,-4.45038 0.48918,0.0376 1.03452,0.0568 1.63659,0.0568 h 2.08876 2.25775 c 0.75259,0 1.48645,-0.0192 2.20141,-0.0568 0.0753,0.22578 0.11266,0.4517 0.11266,0.67748 0,0.11289 -0.0187,0.24481 -0.0563,0.39533 0,0.11288 -0.0187,0.26298 -0.0563,0.45113 -0.17902,0.96022 -0.55623,1.93754 -1.06608,2.92592 l 1.65984,-5.2e-4 c 0.41881,-0.96831 0.73403,-1.97886 0.93018,-3.03805 0.0377,-0.11289 0.0563,-0.3009 0.0563,-0.56431 0,-0.33867 -0.0566,-0.6399 -0.1695,-0.9033 0.94074,-0.11289 1.73121,-0.22559 2.37091,-0.33849 0.67734,-0.11288 1.22319,-0.20689 1.63711,-0.28215 0.15052,-0.0376 0.22531,-0.0942 0.22531,-0.1695 0,-0.2634 -0.16932,-0.39532 -0.50798,-0.39532 h -0.22531 c -0.33866,0.0376 -0.8279,0.0756 -1.46761,0.11317 -0.6397,0.0377 -1.43017,0.0751 -2.37091,0.11265 -0.56445,-0.94074 -1.56163,-1.84391 -2.99155,-2.70939 -0.30104,-0.18815 -0.62097,-0.35746 -0.95963,-0.50798 -0.33867,-0.15051 -0.696,-0.30062 -1.07229,-0.45114 -0.30104,-0.18814 -0.69627,-0.28267 -1.18546,-0.28267 -1.76858,0 -3.3111,0.52716 -4.62814,1.58079 -0.15051,0.11288 -0.22582,0.2822 -0.22582,0.50798 0,0.11288 0.0374,0.3009 0.11265,0.5643 0.0752,0.22581 0.0939,0.35773 0.0563,0.39533 -1.80506,2.05575 -2.99474,4.17974 -3.5972,6.36912 z m 9.5803,-6.8771 c 1.76858,0 2.9543,0.47002 3.55637,1.41076 -2.52118,0.0376 -4.83547,-0.0751 -6.94273,-0.33848 l 0.39481,-0.39532 c 0.11289,-0.11292 0.22611,-0.18823 0.33899,-0.22583 0.41393,-0.30104 1.29789,-0.45113 2.65256,-0.45113 z"
       style="-inkscape-font-specification:'Ephesis, Normal';fill:#ffffff;fill-rule:evenodd;stroke-width:2.205;stroke-linecap:square;stroke-linejoin:round;paint-order:fill markers stroke"
       id="path9" /><path
       d="m 133.93151,144.47811 h -1.78077 c -0.58513,0.91 -1.26672,1.82827 -2.12597,2.76159 -2.14489,2.37067 -4.04525,3.55586 -5.70095,3.55586 -1.39229,0 -2.08824,-1.01588 -2.08824,-3.04788 0,-1.05073 0.16104,-2.14167 0.4656,-3.26853 h -2.46961 c -0.12265,0.70693 -0.19741,1.41936 -0.19741,2.13992 0,3.38666 1.37373,5.07979 4.12068,5.07979 2.22015,0 4.49652,-1.1478 6.82956,-3.4432 1.21956,-1.16239 2.20039,-2.42216 2.94711,-3.77755 z"
       style="-inkscape-font-specification:'Ephesis, Normal';fill:#ffffff;fill-rule:evenodd;stroke-width:2.205;stroke-linecap:square;stroke-linejoin:round;paint-order:fill markers stroke"
       id="path8" /><path
       d="m 115.12852,144.47966 -2.6448,5.2e-4 c -1.1555,3.97852 -1.76268,7.1833 -1.76268,9.53275 0,2.52118 0.77126,4.17692 2.31407,4.96714 0.2634,0.15052 0.62072,0.22583 1.07228,0.22583 1.09126,0 2.38967,-0.39524 3.89486,-1.18546 1.54281,-0.79022 2.03205,-1.18494 1.46761,-1.18494 -0.18816,0 -0.33877,0.0187 -0.45165,0.0563 -0.79022,0.2634 -1.46748,0.47011 -2.03192,0.62063 -0.56444,0.18815 -1.03499,0.35746 -1.41129,0.50798 -1.16651,0.15052 -1.74976,-1.20398 -1.74976,-4.06384 0,-1.88147 0.20723,-4.00775 0.62115,-6.37842 0.18499,-0.98661 0.42767,-2.03611 0.68213,-3.09852 z"
       style="-inkscape-font-specification:'Ephesis, Normal';fill:#ffffff;fill-rule:evenodd;stroke-width:2.205;stroke-linecap:square;stroke-linejoin:round;paint-order:fill markers stroke"
       id="path7" /><path
       d="m 95.085816,114.55849 c -3.574809,0 -7.262305,0.86527 -11.062891,2.59623 -3.047994,1.35466 -5.870226,3.1044 -8.466666,5.24929 -2.483551,1.99437 -4.177201,3.78202 -5.08031,5.36246 -1.053628,1.76859 -1.580266,3.51834 -1.580266,5.24929 0,2.25777 0.978484,3.7442 2.935222,4.45916 1.015998,0.3763 2.088487,0.56431 3.217374,0.56431 0.903109,0 2.502237,-0.43263 4.79764,-1.29811 l -0.790132,0.11265 c -0.602073,0.11289 -1.223233,0.1695 -1.862936,0.1695 -1.69333,0 -3.104446,-0.45133 -4.233333,-1.35444 -1.091258,-0.94074 -1.636593,-2.10723 -1.636593,-3.49953 0,-2.18251 1.203891,-4.55341 3.612183,-7.11222 2.182514,-2.40829 4.760125,-4.32735 7.732861,-5.75727 5.268139,-2.48356 9.350872,-3.72536 12.248348,-3.72536 3.311402,0 4.967139,0.99719 4.967139,2.99155 0,0.90311 -0.244621,2.12621 -0.733806,3.66903 -0.451554,1.54281 -1.222813,3.36786 -2.31407,5.47511 l -5.362464,10.72441 c -1.768589,3.53719 -3.066486,6.47212 -3.894335,8.80515 -0.827851,2.29541 -1.241785,3.98906 -1.241785,5.08031 0,0.41393 0.695951,0.62064 2.088245,0.62064 1.580441,0 2.370914,-0.24463 2.370914,-0.73381 0.188148,-0.15052 0.09363,-0.31983 -0.28267,-0.50798 -0.376295,-0.15052 -0.601703,-0.31983 -0.676961,-0.50798 3.988733,-7.56354 8.560711,-14.07327 13.715956,-19.52956 4.17689,-4.44028 8.05291,-7.54505 11.62772,-9.31364 1.61807,-0.82785 2.85935,-1.24178 3.72483,-1.24178 0.79022,0 1.18546,0.39523 1.18546,1.18545 0,0.1129 -0.0187,0.2256 -0.0563,0.33848 0,0.11289 -0.0187,0.24481 -0.0563,0.39533 -0.97837,2.70933 -1.95686,5.41886 -2.93522,8.12819 -0.94074,2.70933 -1.90001,5.39964 -2.87838,8.07134 -0.50518,1.44099 -0.93202,2.77184 -1.32602,4.05608 l 2.58382,-5.2e-4 c 0.29935,-1.16439 0.62142,-2.35315 0.99994,-3.60391 1.91911,-6.32177 4.28949,-11.62761 7.11171,-15.91738 0.15052,-0.18814 0.22583,-0.43276 0.22583,-0.7338 0,-0.82785 -0.48925,-1.61833 -1.46761,-2.37092 -0.94074,-0.79022 -2.08854,-1.18494 -3.4432,-1.18494 -0.63971,0 -1.20374,0.0753 -1.69292,0.22583 -1.91911,0.52681 -5.3625,2.93511 -10.32961,7.22488 -5.15525,4.44029 -8.711341,8.14648 -10.668078,11.11922 -3.762957,5.75732 -5.682013,8.57955 -5.757271,8.46667 l 7.112227,-14.67559 c 1.730963,-3.57481 3.010162,-6.45313 3.838012,-8.63565 0.82785,-2.22015 1.24178,-3.76318 1.24178,-4.62866 0,-0.22577 -0.0374,-0.4517 -0.11265,-0.67748 -1.35467,-2.22014 -3.819577,-3.33003 -7.394384,-3.33003 z"
       style="-inkscape-font-specification:'Ephesis, Normal';fill:#ffffff;fill-rule:evenodd;stroke-width:2.205;stroke-linecap:square;stroke-linejoin:round;paint-order:fill markers stroke"
       id="path6" /><path
       d="m 203.13555,141.07315 c 0.55788,0.65262 0.884,1.41581 0.99736,2.20039 l -5.6472,5.1e-4 h -2.07946 c -0.28197,0.4061 -0.56689,0.8099 -0.87023,1.1989 h 2.11253 l 6.48487,-5.2e-4 c -0.11256,0.7857 -0.43845,1.54916 -0.99735,2.20038 l 7.69979,-2.80034 z"
       style="fill:#ffffff;fill-rule:evenodd;stroke-linecap:round;stroke-linejoin:round"
       id="path31" /><path
       d="m 197.36278,141.20028 c -0.33867,0 -0.71469,0.28202 -1.12862,0.84646 -0.30667,0.43052 -0.62271,0.82359 -0.93586,1.22731 -0.15628,0.2015 -0.30873,0.41807 -0.46663,0.61288 -0.16526,0.20389 -0.33476,0.38996 -0.50178,0.58653 -1.39382,1.64048 -2.84473,3.04638 -4.36149,4.17753 -1.84383,1.39228 -3.16045,1.97554 -3.95067,1.74976 -0.2634,-0.0376 -0.39532,-0.28226 -0.39532,-0.73381 0,-1.1048 0.66122,-2.88578 1.83658,-5.19296 h -2.59829 c -1.30923,2.86155 -1.94007,4.58718 -1.83452,5.07979 0.11289,0.45155 0.47022,0.9221 1.07229,1.41129 0.6397,0.48918 1.33566,0.7338 2.08825,0.7338 0.37629,0 0.69622,-0.0566 0.95963,-0.1695 1.05361,-0.33866 2.40814,-1.20394 4.06383,-2.59622 0.86116,-0.69449 1.64004,-1.44402 2.37815,-2.22054 0.26172,-0.27533 0.53665,-0.54169 0.7829,-0.82734 0.40795,-0.45502 0.78954,-0.93112 1.16479,-1.41231 0.30334,-0.389 0.58826,-0.7928 0.87023,-1.1989 0.20573,-0.2963 0.4237,-0.58291 0.61805,-0.88832 0.33866,-0.52681 0.50798,-0.88465 0.50798,-1.0728 0,-0.0753 -0.0566,-0.11265 -0.1695,-0.11265 z"
       style="fill:#ffffff;fill-rule:evenodd;stroke-linecap:round;stroke-linejoin:round"
       id="path30" /><path
       d="m 209.3853,133.52374 c -0.63971,0 -1.22295,0.13192 -1.74976,0.39533 -0.52682,0.2634 -1.18538,0.67734 -1.97559,1.24178 -0.7526,0.56444 -1.65577,1.2791 -2.7094,2.14457 -2.06962,1.73097 -3.63085,3.2927 -4.68447,4.68499 0.71496,-1.6557 1.33561,-3.10421 1.86242,-4.34599 0.52682,-1.24177 0.97866,-2.25817 1.35496,-3.04839 0.0753,-0.52681 -0.13197,-0.79013 -0.62115,-0.79013 -0.45156,0 -0.99689,0.26332 -1.6366,0.79013 -0.6397,0.48918 -1.09155,1.07243 -1.35495,1.74976 -0.98613,2.57318 -1.90494,4.8409 -2.78381,6.92826 -0.0843,0.20031 -0.17193,0.41705 -0.25528,0.61288 0.1579,-0.19481 0.31035,-0.41138 0.46663,-0.61288 0.31315,-0.40372 0.62919,-0.79679 0.93586,-1.22731 0.41393,-0.56444 0.78995,-0.84646 1.12862,-0.84646 0.11288,0 0.1695,0.0374 0.1695,0.11265 0,0.18815 -0.16932,0.54599 -0.50798,1.0728 -0.19435,0.30541 -0.41232,0.59202 -0.61805,0.88832 h 2.07946 c 2.39912,-3.23995 5.03187,-5.52421 7.90804,-6.81509 0.75259,-0.33866 1.41115,-0.50797 1.97559,-0.50797 0.52681,0 1.01606,0.16931 1.46761,0.50797 0.48919,0.30104 0.80911,0.45166 0.95963,0.45166 0.30103,0 0.58306,-0.16932 0.84646,-0.50798 0.30104,-0.37629 0.45165,-0.71544 0.45165,-1.01648 0,-0.48918 -0.26332,-0.92181 -0.79013,-1.29811 -0.52682,-0.37629 -1.16668,-0.56431 -1.91926,-0.56431 z"
       style="fill:#ffffff;fill-rule:evenodd;stroke-linecap:round;stroke-linejoin:round"
       id="path29" /><path
       d="m 184.8607,144.47398 c 0.0909,-0.19868 0.15601,-0.35421 0.25373,-0.56431 l -0.39326,0.56431 z"
       style="fill:#ffffff;fill-rule:evenodd;stroke-linecap:round;stroke-linejoin:round"
       id="path28" /><path
       d="m 188.08221,143.27457 c -0.23296,0.42555 -0.42402,0.80839 -0.62322,1.19941 l 6.8709,-5.2e-4 c 0.16702,-0.19657 0.33652,-0.38264 0.50178,-0.58653 0.0833,-0.19583 0.17094,-0.41257 0.25528,-0.61288 z"
       style="fill:#ffffff;fill-rule:evenodd;stroke-linecap:round;stroke-linejoin:round"
       id="path27" /><path
       d="m 177.8327,143.2756 c -0.25868,0.41597 -0.47453,0.80968 -0.68161,1.1989 l 6.29471,-5.2e-4 c 0.32064,-0.4043 0.65705,-0.81976 0.94309,-1.19889 z"
       style="fill:#ffffff;fill-rule:evenodd;stroke-linecap:round;stroke-linejoin:round"
       id="path26" /><path
       d="m 170.32515,143.27612 c -0.28574,0.39302 -0.59214,0.79294 -0.91984,1.19941 l 4.84105,-5.2e-4 c 0.15345,-0.38623 0.32446,-0.78286 0.52968,-1.19941 z"
       style="fill:#ffffff;fill-rule:evenodd;stroke-linecap:round;stroke-linejoin:round"
       id="path25" /><path
       d="m 160.13042,143.27715 c -0.37359,0.41025 -0.75167,0.82315 -1.07073,1.1989 l 7.1577,-5.2e-4 c 0.18609,-0.22569 0.38452,-0.44744 0.55294,-0.67903 0.13822,-0.18639 0.23224,-0.3393 0.36277,-0.51986 z"
       style="fill:#ffffff;fill-rule:evenodd;stroke-linecap:round;stroke-linejoin:round"
       id="path24" /><path
       d="m 152.18104,143.27767 c -0.17598,0.40696 -0.36657,0.80798 -0.58188,1.19889 h 4.42454 c 0.0491,-0.12053 0.0835,-0.2168 0.13487,-0.34106 0.12518,-0.30401 0.25051,-0.56284 0.37569,-0.85835 z"
       style="fill:#ffffff;fill-rule:evenodd;stroke-linecap:round;stroke-linejoin:round"
       id="path23" /><path
       d="m 140.75796,143.27819 c -0.0581,0.15304 -0.13506,0.31937 -0.17828,0.46198 -0.0805,0.24836 -0.14518,0.49266 -0.21136,0.73743 l 9.45059,-5.2e-4 c 0.25831,-0.40181 0.49742,-0.80215 0.70228,-1.19941 z"
       style="fill:#ffffff;fill-rule:evenodd;stroke-linecap:round;stroke-linejoin:round"
       id="path22" /><path
       d="m 134.51338,143.2787 c -0.17607,0.40709 -0.36645,0.80839 -0.58187,1.19941 l 3.9672,-5.1e-4 c 0.0698,-0.40189 0.16033,-0.80141 0.26975,-1.1989 z"
       style="fill:#ffffff;fill-rule:evenodd;stroke-linecap:round;stroke-linejoin:round"
       id="path21" /><path
       d="m 123.09082,143.27974 c -0.0579,0.1525 -0.13469,0.31829 -0.17776,0.46043 -0.0807,0.24886 -0.14559,0.49373 -0.21188,0.73898 l 9.44956,-0.001 c 0.2583,-0.40171 0.49792,-0.80172 0.7028,-1.19889 z"
       style="fill:#ffffff;fill-rule:evenodd;stroke-linecap:round;stroke-linejoin:round"
       id="path20" /><path
       d="m 115.42204,143.28025 c -0.1047,0.40727 -0.1985,0.80272 -0.29352,1.19941 l 5.10305,-5.1e-4 c 0.0697,-0.40204 0.15981,-0.80178 0.26923,-1.19941 z"
       style="fill:#ffffff;fill-rule:evenodd;stroke-linecap:round;stroke-linejoin:round"
       id="path19" /><path
       d="m 99.988359,140.38069 c -0.132621,1.1e-4 -0.259773,0.0529 -0.353467,0.14676 -0.195143,0.19524 -0.195143,0.5117 0,0.70693 l 2.646348,2.64635 -2.646348,2.64635 c -0.195487,0.1953 -0.195487,0.51216 0,0.70745 0.195473,0.19653 0.513528,0.19653 0.708998,0 l 2.75177,-2.75383 h 1.58544 l -2.04639,2.04638 c -0.19549,0.1953 -0.19549,0.51216 0,0.70745 0.19547,0.19653 0.51353,0.19653 0.709,0 l 2.75229,-2.75383 1.66191,-5.2e-4 -2.11512,2.04122 c -0.19905,0.19137 -0.20529,0.50786 -0.014,0.70693 0.19194,0.19847 0.50843,0.20379 0.70694,0.0119 l 2.86287,-2.76004 h 3.28507 c 0.11468,-0.39485 0.22844,-0.78852 0.3545,-1.19941 h -3.64009 l -2.86235,-2.75952 c -0.0952,-0.0921 -0.22309,-0.14265 -0.35554,-0.14056 -0.13272,0.002 -0.25915,0.057 -0.3514,0.15244 -0.19134,0.19908 -0.1851,0.51557 0.014,0.70694 l 2.1146,2.0407 -1.66191,5.2e-4 -2.75384,-2.75384 c -0.19524,-0.19515 -0.51169,-0.19515 -0.70693,0 -0.19515,0.19524 -0.19515,0.51169 0,0.70693 l 2.0469,2.04691 h -1.58595 l -2.75383,-2.75384 c -0.0937,-0.0939 -0.22085,-0.14665 -0.353471,-0.14676 z"
       style="fill:#ffffff;fill-rule:evenodd;stroke-linecap:round"
       id="path18" /></g></svg>
